<svg xmlns="http://www.w3.org/2000/svg" width="400" height="400" viewBox="0 0 300 300"><path d="M137.7 47.5c-.1.2-3.1.6-6.7.9C115.8 50 95 56 81.8 62.6 58.1 74.5 39.2 93.8 32 113.4c-9.5 26.1-5 48.8 15.1 75.3l3.2 4.2-2.8 18.3c-1.5 10.1-3 19.6-3.2 21.3-.3 1.6-.8 4.6-1.2 6.6-.5 2.1-.5 4.2-.1 4.9.5.8 9.1-2.1 29.4-10.1l28.8-11.2 13.6 2.6c7.6 1.4 15.6 2.9 18 3.3 5.5.8 28.6.8 33.8 0 2.2-.3 5.9-.8 8.4-1.1 6.7-.9 22.7-5.1 30.3-8 34.2-12.8 60.2-38.8 65.6-65.7 5.4-26.2-2.3-49.6-23-69.9-20.6-20.2-50.4-33.2-81.4-35.4-8.7-.7-28.4-1.3-28.8-1"/></svg>