<?xml version="1.0" standalone="no"?>
<!DOCTYPE svg PUBLIC "-//W3C//DTD SVG 20010904//EN"
 "http://www.w3.org/TR/2001/REC-SVG-20010904/DTD/svg10.dtd">
<svg version="1.0" xmlns="http://www.w3.org/2000/svg"
 width="300.000000pt" height="300.000000pt" viewBox="0 0 300.000000 300.000000"
 preserveAspectRatio="xMidYMid meet">
<metadata>
Created by potrace 1.14, written by Peter Selinger 2001-2017
</metadata>
<g transform="translate(0.000000,300.000000) scale(0.100000,-0.100000)"
fill="#000000" stroke="none">
<path d="M1377 2525 c-1 -2 -31 -6 -67 -9 -152 -16 -360 -76 -492 -142 -237
-119 -426 -312 -498 -508 -95 -261 -50 -488 151 -753 l32 -42 -28 -183 c-15
-101 -30 -196 -32 -213 -3 -16 -8 -46 -12 -66 -5 -21 -5 -42 -1 -49 5 -8 91
21 294 101 l288 112 136 -26 c76 -14 156 -29 180 -33 55 -8 286 -8 338 0 22 3
59 8 84 11 67 9 227 51 303 80 342 128 602 388 656 657 54 262 -23 496 -230
699 -206 202 -504 332 -814 354 -87 7 -284 13 -288 10z"/>
</g>
</svg>
